<svg width="31" height="30" viewBox="0 0 31 30" fill="none" xmlns="http://www.w3.org/2000/svg">
<path d="M15.5 29.625C13.4872 29.625 11.5913 29.2404 9.81251 28.4712C8.03367 27.701 6.48451 26.6556 5.16501 25.335C3.84551 24.0144 2.80009 22.4652 2.02876 20.6875C1.25743 18.9097 0.872842 17.0139 0.875009 15C0.875009 12.9807 1.25959 11.0832 2.02876 9.30762C2.79901 7.53096 3.84442 5.98342 5.16501 4.665C6.48559 3.34658 8.03476 2.30117 9.81251 1.52875C11.5913 0.759583 13.4872 0.375 15.5 0.375C17.5193 0.375 19.4168 0.759583 21.1924 1.52875C22.969 2.299 24.5171 3.34442 25.8366 4.665C27.1561 5.98558 28.201 7.53312 28.9713 9.30762C29.7404 11.0843 30.125 12.9817 30.125 15C30.125 17.0128 29.7404 18.9087 28.9713 20.6875C28.201 22.4663 27.1556 24.0155 25.835 25.335C24.5144 26.6545 22.9669 27.6999 21.1924 28.4712C19.4179 29.2426 17.5204 29.6272 15.5 29.625ZM15.5 28.013C16.4533 26.7877 17.2398 25.5847 17.8595 24.4039C18.4781 23.223 18.9813 21.9014 19.3691 20.4389H11.6309C12.061 21.9837 12.5745 23.3465 13.1714 24.5274C13.7694 25.7082 14.5456 26.8701 15.5 28.013ZM13.4314 27.7692C12.673 26.8755 11.9808 25.7705 11.3546 24.4542C10.7285 23.1391 10.2626 21.8001 9.95713 20.4372H3.72526C4.65693 22.4577 5.97697 24.1152 7.68538 25.4097C9.39488 26.7032 11.3102 27.4897 13.4314 27.7692ZM17.5686 27.7692C19.6898 27.4897 21.6051 26.7032 23.3146 25.4097C25.023 24.1152 26.3431 22.4577 27.2748 20.4372H21.0445C20.6328 21.8207 20.1145 23.17 19.4894 24.4851C18.8632 25.8014 18.223 26.8972 17.5686 27.7692ZM3.06226 18.8139H9.61913C9.49563 18.1465 9.40897 17.4965 9.35913 16.8639C9.30713 16.2323 9.28113 15.611 9.28113 15C9.28113 14.389 9.30659 13.7677 9.35751 13.1361C9.40843 12.5045 9.49509 11.8545 9.61751 11.1861H3.06388C2.8873 11.7495 2.74918 12.3632 2.64951 13.0272C2.54984 13.6902 2.50001 14.3478 2.50001 15C2.50001 15.6522 2.5493 16.3103 2.64788 16.9744C2.74647 17.6385 2.88459 18.2511 3.06226 18.8122M11.2441 18.8122H19.7559C19.8794 18.146 19.966 17.5068 20.0159 16.8947C20.0679 16.2837 20.0939 15.6522 20.0939 15C20.0939 14.3478 20.0684 13.7162 20.0175 13.1052C19.9666 12.4942 19.8799 11.8551 19.7575 11.1877H11.2425C11.1201 11.854 11.0334 12.4932 10.9825 13.1052C10.9316 13.7162 10.9061 14.3478 10.9061 15C10.9061 15.6522 10.9316 16.2837 10.9825 16.8947C11.0334 17.5057 11.1217 18.1449 11.2441 18.8122ZM21.3825 18.8122H27.9378C28.1143 18.25 28.2525 17.6374 28.3521 16.9744C28.4507 16.3103 28.5 15.6522 28.5 15C28.5 14.3478 28.4507 13.6897 28.3521 13.0256C28.2535 12.3615 28.1154 11.7489 27.9378 11.1877H21.3809C21.5044 11.854 21.591 12.5035 21.6409 13.1361C21.6929 13.7688 21.7189 14.3901 21.7189 15C21.7189 15.6099 21.6934 16.2312 21.6425 16.8639C21.5916 17.4965 21.5049 18.1465 21.3825 18.8139M21.0445 9.56275H27.2748C26.3225 7.50008 25.0182 5.84258 23.3618 4.59025C21.7053 3.33792 19.7743 2.54112 17.5686 2.19987C18.327 3.19762 19.0089 4.33892 19.6145 5.62375C20.2201 6.9075 20.6968 8.2205 21.0445 9.56275ZM11.6309 9.56275H19.3691C18.9401 8.03742 18.4109 6.65833 17.7815 5.4255C17.1521 4.19267 16.3916 3.0465 15.5 1.987C14.6084 3.04542 13.8479 4.19158 13.2185 5.4255C12.5891 6.65942 12.0588 8.0385 11.6309 9.56275ZM3.72688 9.56275H9.95713C10.3049 8.22158 10.7815 6.90858 11.3871 5.62375C11.9927 4.33892 12.6747 3.19762 13.433 2.19987C11.2078 2.54221 9.27192 3.34387 7.62526 4.60487C5.97859 5.86804 4.67859 7.52012 3.72526 9.56112" fill="white"/>
</svg>
